Normalized EMG Linear Envelopes
nRows=32
nColumns=17

endheader
time	        VM	        VL	        RF	       GRA	        TA	   ADDLONG	   SEMIMEM	      BFLH	        GM	        GL	       TFL	   GLUTMAX	   GLUTMED	      PIRI	    OBTINT	        QF	
1.8825	  0.090728	  0.123346	  0.682797	  0.436923	  0.558665	  0.244096	  0.115473	  0.123362	  0.074646	  0.142914	  0.352394	  0.046250	  0.112067	  0.143388	  0.161559	  0.121536	
1.883	  0.090983	  0.123125	  0.683924	  0.434642	  0.557183	  0.241607	  0.115146	  0.123379	  0.073439	  0.141592	  0.350597	  0.046908	  0.113133	  0.143848	  0.163258	  0.121507	
1.8835	  0.091242	  0.122909	  0.685071	  0.432343	  0.555655	  0.239145	  0.114815	  0.123396	  0.072255	  0.140296	  0.348818	  0.047574	  0.114219	  0.144294	  0.164945	  0.121480	
1.884	  0.091506	  0.122698	  0.686236	  0.430028	  0.554080	  0.236710	  0.114479	  0.123413	  0.071093	  0.139026	  0.347058	  0.048246	  0.115322	  0.144723	  0.166619	  0.121454	
1.8845	  0.091774	  0.122492	  0.687420	  0.427698	  0.552460	  0.234304	  0.114139	  0.123427	  0.069952	  0.137782	  0.345317	  0.048924	  0.116444	  0.145137	  0.168278	  0.121430	
1.885	  0.092046	  0.122291	  0.688623	  0.425355	  0.550798	  0.231925	  0.113794	  0.123440	  0.068833	  0.136563	  0.343597	  0.049610	  0.117585	  0.145534	  0.169920	  0.121407	
1.8855	  0.092323	  0.122096	  0.689845	  0.423002	  0.549094	  0.229575	  0.113443	  0.123451	  0.067735	  0.135368	  0.341898	  0.050302	  0.118743	  0.145916	  0.171544	  0.121386	
1.886	  0.092605	  0.121905	  0.691085	  0.420640	  0.547349	  0.227251	  0.113086	  0.123458	  0.066657	  0.134198	  0.340221	  0.051000	  0.119919	  0.146281	  0.173149	  0.121366	
1.8865	  0.092890	  0.121720	  0.692343	  0.418271	  0.545565	  0.224956	  0.112724	  0.123463	  0.065599	  0.133050	  0.338567	  0.051705	  0.121114	  0.146631	  0.174731	  0.121347	
1.887	  0.093180	  0.121539	  0.693617	  0.415896	  0.543744	  0.222688	  0.112355	  0.123464	  0.064560	  0.131924	  0.336935	  0.052416	  0.122326	  0.146966	  0.176290	  0.121329	
1.8875	  0.093475	  0.121363	  0.694908	  0.413518	  0.541886	  0.220447	  0.111980	  0.123462	  0.063541	  0.130821	  0.335328	  0.053132	  0.123555	  0.147285	  0.177824	  0.121313	
1.888	  0.093773	  0.121191	  0.696215	  0.411138	  0.539995	  0.218234	  0.111599	  0.123456	  0.062541	  0.129738	  0.333744	  0.053855	  0.124803	  0.147589	  0.179331	  0.121297	
1.8885	  0.094075	  0.121023	  0.697535	  0.408757	  0.538072	  0.216047	  0.111212	  0.123447	  0.061559	  0.128675	  0.332184	  0.054583	  0.126068	  0.147880	  0.180809	  0.121282	
1.889	  0.094382	  0.120859	  0.698868	  0.406376	  0.536119	  0.213888	  0.110819	  0.123434	  0.060596	  0.127631	  0.330650	  0.055316	  0.127350	  0.148156	  0.182258	  0.121269	
1.8895	  0.094692	  0.120699	  0.700213	  0.403997	  0.534136	  0.211755	  0.110420	  0.123417	  0.059651	  0.126606	  0.329140	  0.056055	  0.128650	  0.148420	  0.183676	  0.121255	
1.89	  0.095006	  0.120543	  0.701568	  0.401620	  0.532127	  0.209648	  0.110016	  0.123396	  0.058723	  0.125599	  0.327656	  0.056799	  0.129967	  0.148671	  0.185061	  0.121243	
1.8905	  0.095324	  0.120390	  0.702932	  0.399248	  0.530091	  0.207567	  0.109606	  0.123372	  0.057812	  0.124608	  0.326198	  0.057547	  0.131301	  0.148911	  0.186414	  0.121230	
1.891	  0.095646	  0.120241	  0.704303	  0.396880	  0.528032	  0.205512	  0.109192	  0.123343	  0.056919	  0.123632	  0.324766	  0.058301	  0.132652	  0.149140	  0.187731	  0.121218	
1.8915	  0.095971	  0.120094	  0.705681	  0.394519	  0.525949	  0.203481	  0.108773	  0.123311	  0.056042	  0.122672	  0.323362	  0.059058	  0.134019	  0.149359	  0.189014	  0.121206	
1.892	  0.096299	  0.119951	  0.707062	  0.392165	  0.523846	  0.201476	  0.108349	  0.123274	  0.055181	  0.121725	  0.321984	  0.059820	  0.135403	  0.149569	  0.190260	  0.121193	
1.8925	  0.096630	  0.119810	  0.708446	  0.389819	  0.521722	  0.199494	  0.107920	  0.123234	  0.054336	  0.120791	  0.320633	  0.060585	  0.136803	  0.149770	  0.191470	  0.121180	
1.893	  0.096965	  0.119671	  0.709831	  0.387481	  0.519581	  0.197537	  0.107488	  0.123190	  0.053507	  0.119868	  0.319310	  0.061355	  0.138218	  0.149965	  0.192641	  0.121166	
1.8935	  0.097302	  0.119535	  0.711217	  0.385154	  0.517422	  0.195602	  0.107052	  0.123142	  0.052693	  0.118957	  0.318014	  0.062127	  0.139649	  0.150153	  0.193774	  0.121151	
1.894	  0.097642	  0.119401	  0.712600	  0.382837	  0.515248	  0.193691	  0.106612	  0.123091	  0.051895	  0.118055	  0.316746	  0.062903	  0.141095	  0.150335	  0.194868	  0.121135	
1.8945	  0.097984	  0.119268	  0.713979	  0.380531	  0.513060	  0.191803	  0.106169	  0.123036	  0.051111	  0.117163	  0.315506	  0.063681	  0.142555	  0.150512	  0.195922	  0.121118	
1.895	  0.098329	  0.119137	  0.715352	  0.378236	  0.510859	  0.189937	  0.105723	  0.122978	  0.050341	  0.116278	  0.314293	  0.064462	  0.144029	  0.150685	  0.196934	  0.121099	
1.8955	  0.098675	  0.119007	  0.716717	  0.375953	  0.508646	  0.188094	  0.105274	  0.122916	  0.049586	  0.115400	  0.313109	  0.065245	  0.145517	  0.150854	  0.197906	  0.121078	
1.896	  0.099023	  0.118878	  0.718071	  0.373683	  0.506422	  0.186273	  0.104823	  0.122851	  0.048844	  0.114528	  0.311952	  0.066030	  0.147018	  0.151019	  0.198834	  0.121055	
1.8965	  0.099373	  0.118749	  0.719412	  0.371425	  0.504190	  0.184474	  0.104370	  0.122784	  0.048116	  0.113661	  0.310823	  0.066816	  0.148531	  0.151183	  0.199720	  0.121030	
1.897	  0.099723	  0.118622	  0.720739	  0.369180	  0.501949	  0.182696	  0.103915	  0.122713	  0.047400	  0.112798	  0.309722	  0.067602	  0.150056	  0.151345	  0.200562	  0.121003	
1.8975	  0.100074	  0.118495	  0.722048	  0.366948	  0.499703	  0.180939	  0.103459	  0.122640	  0.046698	  0.111938	  0.308648	  0.068390	  0.151593	  0.151506	  0.201361	  0.120973	
1.898	  0.100425	  0.118368	  0.723339	  0.364731	  0.497450	  0.179204	  0.103002	  0.122564	  0.046008	  0.111081	  0.307602	  0.069178	  0.153141	  0.151666	  0.202117	  0.120940	
